<svg width="40" height="64" viewBox="0 0 40 64" fill="none" xmlns="http://www.w3.org/2000/svg">
<path d="M40 7.20412V0.676888C40 0.111138 39.3529 -0.201291 38.916 0.144914L1.03373 29.8763C0.711869 30.1278 0.451429 30.4499 0.272279 30.818C0.0931282 31.186 0 31.5903 0 32C0 32.4097 0.0931282 32.814 0.272279 33.1821C0.451429 33.5501 0.711869 33.8722 1.03373 34.1237L38.916 63.8551C39.3613 64.2013 40 63.8889 40 63.3231V56.7959C40 56.3821 39.8067 55.9853 39.4874 55.7319L9.23539 32.0042L39.4874 8.26807C39.8067 8.01475 40 7.61788 40 7.20412Z" fill="white"/>
</svg>
