<svg width="40" height="64" viewBox="0 0 40 64" fill="none" xmlns="http://www.w3.org/2000/svg">
<path d="M0 56.7959V63.3231C0 63.8889 0.64706 64.2013 1.08403 63.8551L38.9663 34.1237C39.2881 33.8722 39.5486 33.5501 39.7277 33.182C39.9069 32.814 40 32.4097 40 32C40 31.5903 39.9069 31.186 39.7277 30.8179C39.5486 30.4499 39.2881 30.1278 38.9663 29.8763L1.08403 0.144913C0.638657 -0.201294 0 0.111137 0 0.676888V7.20412C0 7.61788 0.193275 8.01475 0.5126 8.26807L30.7646 31.9958L0.5126 55.7319C0.193275 55.9853 0 56.3821 0 56.7959Z" fill="white"/>
</svg>
