<svg width="26" height="22" viewBox="0 0 26 22" fill="none" xmlns="http://www.w3.org/2000/svg">
<path fill-rule="evenodd" clip-rule="evenodd" d="M0.291987 8.29202C0.384879 8.19889 0.49523 8.125 0.61672 8.07459C0.73821 8.02418 0.868452 7.99823 0.999987 7.99823C1.13152 7.99823 1.26176 8.02418 1.38325 8.07459C1.50474 8.125 1.6151 8.19889 1.70799 8.29202L13 19.586L24.292 8.29202C24.4798 8.10424 24.7344 7.99875 25 7.99875C25.2655 7.99875 25.5202 8.10424 25.708 8.29202C25.8958 8.47979 26.0012 8.73447 26.0012 9.00002C26.0012 9.26557 25.8958 9.52024 25.708 9.70802L13.708 21.708C13.6151 21.8011 13.5047 21.875 13.3833 21.9254C13.2618 21.9759 13.1315 22.0018 13 22.0018C12.8685 22.0018 12.7382 21.9759 12.6167 21.9254C12.4952 21.875 12.3849 21.8011 12.292 21.708L0.291987 9.70802C0.198861 9.61513 0.124975 9.50477 0.0745621 9.38328C0.0241492 9.26179 -0.00180054 9.13155 -0.00180054 9.00002C-0.00180054 8.86848 0.0241492 8.73824 0.0745621 8.61675C0.124975 8.49526 0.198861 8.38491 0.291987 8.29202Z" fill="white"/>
<path fill-rule="evenodd" clip-rule="evenodd" d="M0.291987 0.292017C0.384879 0.198891 0.49523 0.125005 0.61672 0.0745926C0.73821 0.0241797 0.868452 -0.00177002 0.999987 -0.00177002C1.13152 -0.00177002 1.26176 0.0241797 1.38325 0.0745926C1.50474 0.125005 1.6151 0.198891 1.70799 0.292017L13 11.586L24.292 0.292017C24.385 0.199042 24.4953 0.125289 24.6168 0.0749712C24.7383 0.024653 24.8685 -0.0012455 25 -0.0012455C25.1315 -0.0012455 25.2617 0.024653 25.3832 0.0749712C25.5046 0.125289 25.615 0.199042 25.708 0.292017C25.801 0.384993 25.8747 0.495372 25.925 0.616851C25.9753 0.73833 26.0012 0.86853 26.0012 1.00002C26.0012 1.13151 25.9753 1.26171 25.925 1.38318C25.8747 1.50466 25.801 1.61504 25.708 1.70802L13.708 13.708C13.6151 13.8011 13.5047 13.875 13.3833 13.9254C13.2618 13.9759 13.1315 14.0018 13 14.0018C12.8685 14.0018 12.7382 13.9759 12.6167 13.9254C12.4952 13.875 12.3849 13.8011 12.292 13.708L0.291987 1.70802C0.198861 1.61513 0.124975 1.50478 0.0745621 1.38329C0.0241492 1.26179 -0.00180054 1.13155 -0.00180054 1.00002C-0.00180054 0.868483 0.0241492 0.738241 0.0745621 0.61675C0.124975 0.49526 0.198861 0.384909 0.291987 0.292017Z" fill="white"/>
</svg>
