<svg width="27" height="27" viewBox="0 0 27 27" fill="none" xmlns="http://www.w3.org/2000/svg">
<path d="M20.53 8.4375V6.75C20.53 3.02801 17.1809 0 13.0645 0C8.94803 0 5.59908 3.02801 5.59908 6.75V8.4375H0V22.7812C0 25.1112 2.08898 27 4.6659 27H21.4631C24.0401 27 26.129 25.1112 26.129 22.7812V8.4375H20.53ZM9.3318 6.75C9.3318 4.889 11.0063 3.375 13.0645 3.375C15.1228 3.375 16.7972 4.889 16.7972 6.75V8.4375H9.3318V6.75ZM18.6636 13.0781C17.8905 13.0781 17.2638 12.5115 17.2638 11.8125C17.2638 11.1135 17.8905 10.5469 18.6636 10.5469C19.4367 10.5469 20.0634 11.1135 20.0634 11.8125C20.0634 12.5115 19.4367 13.0781 18.6636 13.0781ZM7.46544 13.0781C6.69236 13.0781 6.06567 12.5115 6.06567 11.8125C6.06567 11.1135 6.69236 10.5469 7.46544 10.5469C8.23852 10.5469 8.86521 11.1135 8.86521 11.8125C8.86521 12.5115 8.23852 13.0781 7.46544 13.0781Z" fill="white"/>
</svg>
