<svg version="1.2" xmlns="http://www.w3.org/2000/svg" viewBox="0 0 256 256" width="256" height="256">
	<title>New Project</title>
	<style>
		.s0 { fill: #ffffff } 
	</style>
	<g id="Layer 1">
		<path id="&lt;Path&gt;" fill-rule="evenodd" class="s0" d="m128.4 65.6c-10.7 0-19.3-8.6-19.3-19.3 0-10.7 8.6-19.3 19.3-19.3 10.7 0 19.3 8.6 19.3 19.3 0 10.7-8.6 19.3-19.3 19.3z"/>
		<path id="&lt;Compound Path&gt;" fill-rule="evenodd" class="s0" d="m251.4 96.9c-5.4-0.4-18.8-1.7-38.3 3.5-2.4-20.1-8-35.7-14.8-52.4-27.3 9.6-51.8 25.6-69.9 43.4-18.1-17.8-42.6-33.8-69.9-43.4-6.9 16.7-12.4 32.3-14.9 52.4-20.9-5.5-32.9-3.9-38.2-3.5-5.8 30.3-1.4 64.8 17.1 90 26.2 35.7 67.7 38.4 89.1 41.5-9-8.7-29.3-31.6-33.7-37.3 0 0-0.1 0-0.1 0h0.1c-19.3-25.1-25.3-51.4-23.9-82 0.3-6.3 1.4-12.7 2.3-17.3h0.1c1.9-10 4.7-19.8 8.4-29.4 10.3 4.4 34.7 16.3 56 37.3-7.9 9-14.5 18.7-19.7 28.8 0 0-15-13.5-38.5-21.8-0.4 3.9-0.5 8.1-0.4 12 34.3 14.9 57.2 40.6 66 55.5 7.3-9.6 12.2-17.2 23.3-27.4 2 5.5 3.6 11.3 4.8 17.1-3.4 5.5-14.6 22.6-27.9 33.6-13.3-11-24.5-28.1-28-33.6 0.7-3 1.2-5.7 2-8.7-2.6-2.6-5.9-5.4-9.2-8-2.2 6.6-3.4 12.4-4.6 18.8 13.4 24.4 28.2 36.4 39.6 45.7 12.1-9.6 28.8-23.7 39.9-45.7-5.1-28.9-22.1-53.8-26.9-59.9-2.7 2.6-5.5 5.5-7.8 8.2 5.3 6.9 9.8 14.1 13.4 21.6-6.8 5.9-12.9 12.4-18.4 19.4-5.6-7-11.7-13.5-18.5-19.4 8.9-18.2 24.8-36.2 32.3-42.1q0 0 0 0c19.6-17.4 40.5-27.5 49.8-31.4 5.3 14.1 8.8 27.9 10.2 41.3-14.9 5.1-28.2 12-40.5 20.6 1.8 3.1 3.6 6.7 5 10.2 11-7.9 27.2-16.6 41.7-21 13.2-4 27.2-5.9 33.4-5.9 1.3 11.9 3 45.9-16.6 72.7-11.2 15.2-27.6 25.7-48.9 31.4 15.8-16.2 37.5-46.7 37.9-91.8-3.8 1.1-7.7 2.3-11.3 3.7-1 29.4-11.5 51.1-24 67.5-0.8 0.9-20.1 24.1-33.8 37.3 21.5-3.1 63-5.8 89.2-41.5 18.5-25.2 22.9-59.7 17.1-90zm-170.9 114.8c-21.4-5.7-37.8-16.2-49-31.4-19.6-26.8-17.9-60.8-16.5-72.7q0.1 0 0.2 0c8.1 0 17.6 1.4 27.5 4.2-2.3 49.5 21 82.7 37.8 99.9z"/>
	</g>
</svg>