<svg width="46" height="41" viewBox="0 0 46 41" fill="none" xmlns="http://www.w3.org/2000/svg">
<path d="M43.8561 4.34589L29.9 0.442139L15.9031 4.38489L2.88678 0.692451C2.60786 0.613316 2.31439 0.59994 2.02943 0.653373C1.74448 0.706807 1.47579 0.825595 1.24449 1.0004C1.01319 1.17521 0.825579 1.40128 0.6964 1.66083C0.567221 1.92039 0.499994 2.20637 0.5 2.49629V34.4275C0.501418 34.9169 0.661689 35.3925 0.956701 35.7828C1.25171 36.1732 1.66551 36.4572 2.13584 36.5921L15.8999 40.4968L29.9029 36.5524L43.1201 40.2495C43.3987 40.3274 43.6917 40.3398 43.9759 40.2857C44.2602 40.2315 44.528 40.1123 44.7585 39.9374C44.989 39.7624 45.1759 39.5365 45.3045 39.2773C45.4332 39.0181 45.5001 38.7327 45.5 38.4433V6.51273C45.4988 6.02195 45.3376 5.54494 45.041 5.15395C44.7444 4.76296 44.3284 4.47928 43.8561 4.34589ZM14.2812 36.9188L3.5 33.8603V3.98476L14.2812 7.04326V36.9188ZM28.4014 33.8581L17.2812 36.9905V7.11339L28.4014 3.98101V33.8581ZM42.5 36.9604L31.4014 33.8563V3.97717L42.5 7.08133V36.9604Z" fill="white"/>
</svg>
