<svg width="28" height="23" viewBox="0 0 28 23" fill="none" xmlns="http://www.w3.org/2000/svg">
<path d="M26.8 9.2H1.2C0.0959998 9.2 0 10.2281 0 11.5C0 12.7719 0.0959998 13.8 1.2 13.8H26.8C27.904 13.8 28 12.7719 28 11.5C28 10.2281 27.904 9.2 26.8 9.2ZM26.8 18.4H1.2C0.0959998 18.4 0 19.4281 0 20.7C0 21.9719 0.0959998 23 1.2 23H26.8C27.904 23 28 21.9719 28 20.7C28 19.4281 27.904 18.4 26.8 18.4ZM1.2 4.6H26.8C27.904 4.6 28 3.5719 28 2.3C28 1.0281 27.904 0 26.8 0H1.2C0.0959998 0 0 1.0281 0 2.3C0 3.5719 0.0959998 4.6 1.2 4.6Z" fill="white"/>
</svg>
