<svg width="33" height="33" viewBox="0 0 33 33" fill="none" xmlns="http://www.w3.org/2000/svg">
<path d="M30.8512 22.5558C28.6475 22.5558 26.5154 22.1975 24.5267 21.5525C24.2151 21.4469 23.8801 21.4312 23.56 21.5073C23.24 21.5833 22.9478 21.748 22.7171 21.9825L19.9042 25.5121C14.8337 23.0933 10.0858 18.5246 7.55958 13.275L11.0533 10.3008C11.5371 9.79917 11.6804 9.10042 11.4833 8.47333C10.8204 6.48458 10.48 4.3525 10.48 2.14875C10.48 1.18125 9.67375 0.375 8.70625 0.375H2.50708C1.53958 0.375 0.375 0.805 0.375 2.14875C0.375 18.7933 14.2246 32.625 30.8512 32.625C32.1233 32.625 32.625 31.4962 32.625 30.5108V24.3296C32.625 23.3621 31.8188 22.5558 30.8512 22.5558Z" fill="white"/>
</svg>
